# xmcd
#
# Track frame offsets:
#	150
#	16546
#	29365
#	49375
#	63055
#	81293
#	90663
#	109547
#	120478
#	133761
#	162250
#	172271
#
# Disc length: 2485 seconds
#
# Revision: 1
# Processed by: cddbd v1.4PL0 Copyright (c) Steve Scherf et al.
# Submitted via: audiograbber 1.81.03
#
DISCID=9309b30c
DTITLE=Don Croissant - Loaded With Extras
DYEAR=1900
DGENRE=Blues
TTITLE0=Bit Time Woman
TTITLE1=I've Got Fuel
TTITLE2=I Can't Get Out Of My Bed
TTITLE3=I've Got A Friend
TTITLE4=Not Now
TTITLE5=Coffee And Tea
TTITLE6=Nightmare
TTITLE7=You Win Again
TTITLE8=Lets All Eat Chinese (Food)
TTITLE9=5 Bucks In My Alligatorskin Wallet
TTITLE10=Pic-Nic Break
TTITLE11=Louisiana Blues
EXTD=
EXTT0=
EXTT1=
EXTT2=
EXTT3=
EXTT4=
EXTT5=
EXTT6=
EXTT7=
EXTT8=
EXTT9=
EXTT10=
EXTT11=
PLAYORDER=
